<?xml version="1.0" encoding="UTF-8" standalone="no"?>
<svg
   xmlns:dc="http://purl.org/dc/elements/1.1/"
   xmlns:cc="http://creativecommons.org/ns#"
   xmlns:rdf="http://www.w3.org/1999/02/22-rdf-syntax-ns#"
   xmlns:svg="http://www.w3.org/2000/svg"
   xmlns="http://www.w3.org/2000/svg"
   xmlns:xlink="http://www.w3.org/1999/xlink"
   width="148.72371mm"
   height="155.47733mm"
   viewBox="0 0 526.97376 550.90384"
   id="svg10472"
   version="1.1">
  <title
     id="title8537">Jungle explorer</title>
  <defs
     id="defs10474">
    <linearGradient
       xlink:href="#linearGradient3570"
       id="linearGradient24494"
       gradientUnits="userSpaceOnUse"
       gradientTransform="matrix(201.1,227.43,227.43,-201.1,-50555,153920)"
       x1="-270.07999"
       y1="460.09"
       x2="-268.41"
       y2="460.09" />
    <linearGradient
       id="linearGradient3570"
       y2="460.09"
       gradientUnits="userSpaceOnUse"
       x2="-268.41"
       gradientTransform="matrix(201.1,227.43,227.43,-201.1,-50555,153920)"
       y1="460.09"
       x1="-270.07999">
      <stop
         id="stop142-1"
         style="stop-color:#FFD8BF"
         offset="0" />
      <stop
         id="stop144-2"
         style="stop-color:#BF7400"
         offset=".5393" />
      <stop
         id="stop146-7"
         style="stop-color:#000000"
         offset="1" />
    </linearGradient>
    <linearGradient
       xlink:href="#linearGradient3558"
       id="linearGradient24496"
       gradientUnits="userSpaceOnUse"
       gradientTransform="matrix(201.1,227.43,227.43,-201.1,-50555,153920)"
       x1="-270.09"
       y1="460.10001"
       x2="-268.39999"
       y2="460.10001" />
    <linearGradient
       id="linearGradient3558"
       y2="460.10001"
       gradientUnits="userSpaceOnUse"
       x2="-268.39999"
       gradientTransform="matrix(201.1,227.43,227.43,-201.1,-50555,153920)"
       y1="460.10001"
       x1="-270.09">
      <stop
         id="stop172-8"
         style="stop-color:#F3C192"
         offset="0" />
      <stop
         id="stop174-8"
         style="stop-color:#D49035"
         offset=".5393" />
      <stop
         id="stop176-8"
         style="stop-color:#765735"
         offset="1" />
    </linearGradient>
    <radialGradient
       gradientTransform="matrix(1.5,0.024859,-0.018059,1.0897,-548.39,-65.481)"
       r="222.36"
       cy="255.61"
       cx="1106"
       gradientUnits="userSpaceOnUse"
       id="radialGradient9905">
      <stop
         offset="0"
         style="stop-color:#d6b991"
         id="stop3003" />
      <stop
         offset="1"
         style="stop-color:#d0aa7b"
         id="stop3005" />
    </radialGradient>
    <linearGradient
       x1="1053.9"
       x2="1421.3"
       y1="349.66"
       gradientUnits="userSpaceOnUse"
       y2="11.74"
       id="linearGradient9907">
      <stop
         offset="0"
         style="stop-color:#a69075"
         id="stop3939" />
      <stop
         offset="1"
         style="stop-color:#918a6f"
         id="stop3941" />
    </linearGradient>
    <linearGradient
       x1="1368.2"
       x2="1189.1"
       y1="100.9"
       gradientUnits="userSpaceOnUse"
       y2="169.03999"
       id="linearGradient9909">
      <stop
         offset="0"
         style="stop-color:#d0aa7b"
         id="stop3011" />
      <stop
         offset="1"
         style="stop-color:#d6b991"
         id="stop3013" />
    </linearGradient>
    <linearGradient
       x1="1246.7"
       x2="1252.9"
       y1="86.593002"
       gradientUnits="userSpaceOnUse"
       y2="86.593002"
       id="linearGradient9911">
      <stop
         offset="0"
         style="stop-color:#b28f64"
         id="stop3908-9" />
      <stop
         offset=".5"
         style="stop-color:#a05a2c"
         id="stop3914" />
      <stop
         offset="1"
         style="stop-color:#b28f64"
         id="stop3910-8" />
    </linearGradient>
    <filter
       style="color-interpolation-filters:sRGB"
       height="1.2280999"
       x="-0.019446"
       y="-0.11406"
       width="1.0389"
       id="filter3889">
      <feGaussianBlur
         stdDeviation="0.42612"
         id="feGaussianBlur3891" />
    </filter>
    <radialGradient
       gradientTransform="matrix(1,0,0,0.54203,0,-8.4276)"
       r="36.292999"
       cy="-46.937"
       cx="1243.1"
       gradientUnits="userSpaceOnUse"
       id="radialGradient9913">
      <stop
         offset="0"
         style="stop-color:#dcc59c"
         id="stop3900" />
      <stop
         offset="1"
         style="stop-color:#cdab7b"
         id="stop3898" />
    </radialGradient>
    <filter
       style="color-interpolation-filters:sRGB"
       height="1.2832"
       x="-0.013111"
       y="-0.14161"
       width="1.0262001"
       id="filter4153">
      <feGaussianBlur
         stdDeviation="2.312701"
         id="feGaussianBlur4155" />
    </filter>
    <linearGradient
       x1="1033.3"
       x2="1456.6"
       y1="264.31"
       gradientUnits="userSpaceOnUse"
       y2="264.31"
       id="linearGradient9915">
      <stop
         offset="0"
         style="stop-color:#502d16"
         id="stop4094" />
      <stop
         offset="1"
         style="stop-color:#520"
         id="stop4096-7" />
    </linearGradient>
    <filter
       style="color-interpolation-filters:sRGB"
       id="filter4171">
      <feGaussianBlur
         stdDeviation="0.60265078"
         id="feGaussianBlur4173" />
    </filter>
    <linearGradient
       x1="1323.4"
       x2="1429.6"
       y1="258.20001"
       gradientUnits="userSpaceOnUse"
       y2="264.32001"
       id="linearGradient9917">
      <stop
         offset="0"
         style="stop-color:#2b1100"
         id="stop4110" />
      <stop
         offset="1"
         style="stop-color:#542405"
         id="stop4108" />
    </linearGradient>
    <linearGradient
       x1="1385.9"
       x2="1394.8"
       y1="264.38"
       gradientUnits="userSpaceOnUse"
       y2="265.95999"
       id="linearGradient9919">
      <stop
         offset="0"
         style="stop-color:#d4aa00"
         id="stop4135-2" />
      <stop
         offset="1"
         style="stop-color:#fc0"
         id="stop4137" />
    </linearGradient>
    <filter
       style="color-interpolation-filters:sRGB"
       id="filter4179">
      <feGaussianBlur
         stdDeviation="0.64226076"
         id="feGaussianBlur4181" />
    </filter>
    <radialGradient
       gradientTransform="matrix(1.1594,0.18253,-0.13458,0.85484,-186.12,-214.72)"
       r="24.796"
       cy="263.75"
       cx="1390"
       gradientUnits="userSpaceOnUse"
       id="radialGradient9921">
      <stop
         offset="0"
         style="stop-color:#fea"
         id="stop4145" />
      <stop
         offset="1"
         style="stop-color:#fc0"
         id="stop4143" />
    </radialGradient>
    <filter
       style="color-interpolation-filters:sRGB"
       id="filter4209">
      <feGaussianBlur
         stdDeviation="0.68008625"
         id="feGaussianBlur4211" />
    </filter>
    <linearGradient
       x1="805.66998"
       x2="853"
       gradientTransform="matrix(0.37829,0.81363,-0.92569,0.3325,1193.8,-274.96)"
       y1="769.59003"
       gradientUnits="userSpaceOnUse"
       spreadMethod="repeat"
       xlink:href="#linearGradient30381"
       y2="769.41998"
       id="linearGradient9923" />
    <linearGradient
       id="linearGradient30381">
      <stop
         offset="0"
         style="stop-color:#820201"
         id="stop30383" />
      <stop
         offset=".20987"
         style="stop-color:#f5c33c"
         id="stop30393" />
      <stop
         offset=".34333"
         style="stop-color:#f2da82"
         id="stop30391" />
      <stop
         offset=".5"
         style="stop-color:#d87a06"
         id="stop30389" />
      <stop
         offset=".65988"
         style="stop-color:#ec950e"
         id="stop30395" />
      <stop
         offset="1"
         style="stop-color:#ee970f"
         id="stop30385" />
    </linearGradient>
    <linearGradient
       x1="805.66998"
       x2="853"
       gradientTransform="translate(8.0336,-70.695)"
       y1="769.59003"
       gradientUnits="userSpaceOnUse"
       spreadMethod="repeat"
       xlink:href="#linearGradient30381"
       y2="769.41998"
       id="linearGradient9925" />
    <radialGradient
       gradientTransform="matrix(2.5567,-0.0094351,0.0042612,1.9517,-1309.3,-837.48)"
       r="24.995001"
       cy="890.62"
       cx="838.72998"
       gradientUnits="userSpaceOnUse"
       id="radialGradient9927">
      <stop
         offset="0"
         style="stop-color:#f1f7db"
         id="stop29553" />
      <stop
         offset="1"
         style="stop-color:#dbc280"
         id="stop29555" />
    </radialGradient>
    <linearGradient
       x1="847"
       x2="848.15002"
       gradientTransform="translate(-9.7407,-112.47)"
       y1="778.19"
       gradientUnits="userSpaceOnUse"
       y2="796.27002"
       id="linearGradient9929">
      <stop
         offset="0"
         style="stop-color:#e1cea6"
         id="stop29570" />
      <stop
         offset="1"
         style="stop-color:#f0f5d7"
         id="stop29572" />
    </linearGradient>
    <linearGradient
       x1="801.53998"
       x2="860.76001"
       gradientTransform="translate(-9.6403,-112.67)"
       y1="758.38"
       gradientUnits="userSpaceOnUse"
       xlink:href="#linearGradient29584"
       y2="758.38"
       id="linearGradient9931" />
    <linearGradient
       id="linearGradient29584">
      <stop
         offset="0"
         style="stop-color:#c47940"
         id="stop29586" />
      <stop
         offset=".14262"
         style="stop-color:#f7db4b"
         id="stop29594" />
      <stop
         offset=".53774"
         style="stop-color:#f7db4b"
         id="stop29600" />
      <stop
         offset=".60744"
         style="stop-color:#fff6d5"
         id="stop29596" />
      <stop
         offset=".75471"
         style="stop-color:#f7db4b"
         id="stop29602" />
      <stop
         offset=".90199"
         style="stop-color:#f3d75b"
         id="stop29598" />
      <stop
         offset="1"
         style="stop-color:#efd36b"
         id="stop29588" />
    </linearGradient>
    <linearGradient
       x1="802.69"
       x2="821.70001"
       y1="674.15997"
       gradientUnits="userSpaceOnUse"
       y2="634.39001"
       id="linearGradient9933">
      <stop
         offset="0"
         style="stop-color:#f6f4e5"
         id="stop30466" />
      <stop
         offset=".47019"
         style="stop-color:#eee6ba"
         id="stop30472" />
      <stop
         offset="1"
         style="stop-color:#f8f7f2"
         id="stop30468" />
    </linearGradient>
    <linearGradient
       x1="741.94"
       x2="760.88"
       gradientTransform="translate(57.942,-23.006)"
       y1="646.28998"
       gradientUnits="userSpaceOnUse"
       xlink:href="#linearGradient29584"
       y2="699.12"
       id="linearGradient9935" />
    <filter
       style="color-interpolation-filters:sRGB"
       id="filter30599">
      <feGaussianBlur
         stdDeviation="0.27546875"
         id="feGaussianBlur30601" />
    </filter>
    <linearGradient
       x1="816.73999"
       x2="822.07001"
       gradientTransform="translate(-12.851,-26.135)"
       y1="765.03003"
       gradientUnits="userSpaceOnUse"
       y2="759.21002"
       id="linearGradient9937">
      <stop
         offset="0"
         style="stop-color:#f7f169"
         id="stop30528" />
      <stop
         offset="1"
         style="stop-color:#f4ae19"
         id="stop30526" />
    </linearGradient>
    <radialGradient
       gradientTransform="matrix(0.241,-0.046017,0.030928,0.16198,590.33,652.68)"
       r="16.233999"
       cy="734.12"
       cx="804.53998"
       gradientUnits="userSpaceOnUse"
       id="radialGradient9939">
      <stop
         offset="0"
         style="stop-color:white"
         id="stop30556" />
      <stop
         offset="1"
         style="stop-color:white;stop-opacity:0"
         id="stop30558" />
    </radialGradient>
  </defs>
  <metadata
     id="metadata10477">
    <rdf:RDF>
      <cc:Work
         rdf:about="">
        <dc:format>image/svg+xml</dc:format>
        <dc:type
           rdf:resource="http://purl.org/dc/dcmitype/StillImage" />
        <dc:title>Jungle explorer</dc:title>
        <dc:creator>
          <cc:Agent>
            <dc:title>Jan Helebrant</dc:title>
          </cc:Agent>
        </dc:creator>
        <dc:rights>
          <cc:Agent>
            <dc:title>Jan Helebrant</dc:title>
          </cc:Agent>
        </dc:rights>
        <dc:publisher>
          <cc:Agent>
            <dc:title>Jan Helebrant</dc:title>
          </cc:Agent>
        </dc:publisher>
        <cc:license
           rdf:resource="http://creativecommons.org/publicdomain/zero/1.0/" />
        <dc:subject>
          <rdf:Bag>
            <rdf:li>machete</rdf:li>
            <rdf:li>jungle</rdf:li>
            <rdf:li>helmet</rdf:li>
            <rdf:li>pith helmet</rdf:li>
            <rdf:li>tropical</rdf:li>
            <rdf:li>banana</rdf:li>
            <rdf:li>compass</rdf:li>
            <rdf:li>explorer</rdf:li>
            <rdf:li>adventurer</rdf:li>
            <rdf:li>travel</rdf:li>
            <rdf:li>sun</rdf:li>
            <rdf:li>tropic</rdf:li>
          </rdf:Bag>
        </dc:subject>
        <dc:contributor>
          <cc:Agent>
            <dc:title>gnokii</dc:title>
          </cc:Agent>
        </dc:contributor>
      </cc:Work>
      <cc:License
         rdf:about="http://creativecommons.org/publicdomain/zero/1.0/">
        <cc:permits
           rdf:resource="http://creativecommons.org/ns#Reproduction" />
        <cc:permits
           rdf:resource="http://creativecommons.org/ns#Distribution" />
        <cc:permits
           rdf:resource="http://creativecommons.org/ns#DerivativeWorks" />
      </cc:License>
    </rdf:RDF>
  </metadata>
  <g
     id="layer1"
     transform="translate(1647.6855,-32.579879)">
    <g
       transform="matrix(4.3398863,0,0,4.3398863,-3128.582,-3171.8814)"
       id="g26629">
      <g
         transform="matrix(-0.17953121,0,0,0.17953121,816.13974,761.18739)"
         id="g22382"
         style="overflow:visible">
        <g
           transform="matrix(-4.4031813,0,0,4.4031813,9522.4089,-5766.853)"
           id="g26563">
          <g
             id="layer1-83"
             transform="matrix(0.64037133,0,0,0.64037133,1592.1144,1104.089)" />
          <g
             id="g24355"
             transform="matrix(1.0003789,0,0,1.0003789,842.73409,559.79788)">
            <g
               style="overflow:visible"
               id="g24357"
               transform="matrix(-0.17953121,0,0,0.17953121,816.13974,761.18739)">
              <g
                 id="g24359"
                 transform="matrix(-5.5590437,0,0,5.5590437,4379.8616,-3812.0747)">
                <path
                   id="rect26212"
                   d="m 727.75818,723.45404 h 37.3486 c 4.59802,0 8.29968,3.70166 8.29968,8.29969 v 48.96816 c 0,4.59803 -3.70166,8.29969 -8.29968,8.29969 h -37.3486 c -4.59802,0 -8.29968,-3.70166 -8.29968,-8.29969 v -48.96816 c 0,-4.59803 3.70166,-8.29969 8.29968,-8.29969 z"
                   style="opacity:1;fill:#784421;fill-opacity:1;stroke:#000000;stroke-width:0.500801;stroke-linecap:round;stroke-miterlimit:4;stroke-dasharray:none;stroke-opacity:1" />
                <path
                   id="path24361"
                   style="fill:#dbc297;fill-opacity:1"
                   d="m -8.7499,263.17 c 0,45.938 -44.044,62.126 -83.516,61.114 -43.836,-1.126 -82.184,-23.902 -76.4,-72.264 4.978,-41.648 37.762,-89.402 84.358,-86.64 47.516,2.814 75.558,54.864 75.558,97.79"
                   transform="matrix(0.45289137,0,0,0.45289137,785.64346,647.73558)" />
                <path
                   id="path24363"
                   style="fill:#dbc297;fill-opacity:1"
                   d="m -88.01,167.02 c -45.336,0 -75.902,47.8 -79.278,88.666 -3.9,47.282 37.326,66.856 78.942,66.856 -37.754,0 -78.34,-16.924 -76.442,-60.542 1.818,-41.78 34.532,-74.728 76.748,-74.728 40.208,0 71.12,29.5 74.434,69.33 3.802,45.754 -33.596,65.94 -74.678,65.94 40.186,0 79.44,-18.68 77.662,-64.026 -1.636,-41.788 -30.726,-91.496 -77.388,-91.496"
                   transform="matrix(0.45289137,0,0,0.45289137,785.64346,647.73558)" />
                <path
                   id="path24365"
                   style="fill:#282828;fill-opacity:1"
                   d="m -146.54,195.03 c -25.348,31.744 -39.262,89.712 0.402,116.18 32.26,21.52 91.224,21.96 120.86,-4.856 31.268,-28.296 18.122,-82.32 -4.734,-111.62 -31.412,-40.256 -84.782,-39.366 -116.53,0.296 m -21.37,69.566 c 0,-44.65 33.046,-100.67 83.424,-97.744 45.376,2.636 72.616,50.884 74.168,91.98 1.646,43.63 -34.196,62.89 -73.616,63.928 -37.66,0.996 -83.976,-13.12 -83.976,-58.164"
                   transform="matrix(0.45289137,0,0,0.45289137,785.64346,647.73558)" />
                <path
                   id="path24367"
                   style="fill:#632d00;fill-opacity:1"
                   d="m -88.138,300.92 c -26.774,0 -59.094,-4.014 -78.618,-24.488 6.86,34.126 43.316,45.49 73.982,46.324 32.876,0.896 73.282,-8.804 81.144,-45.872 -18.952,20.148 -50.358,24.036 -76.508,24.036"
                   transform="matrix(0.45289137,0,0,0.45289137,785.64346,647.73558)" />
                <path
                   id="path24369"
                   style="fill:#000000;fill-opacity:1"
                   d="m -88.01,166.15 c 42.562,0 70.616,43.026 75.084,81.346 5.168,44.314 -25.76,68.4 -67.51,70.664 -37.476,2.026 -85.5,-11.688 -85.5,-56.956 0,-41.454 28.508,-91.786 73.924,-94.936 -45.49,3.078 -74.742,52.352 -76.416,93.964 -1.908,47.352 43.712,64.216 84.108,63.176 41.912,-1.078 77.856,-22.838 74.376,-68.742 -3.116,-41.06 -32.382,-88.516 -78.066,-88.516"
                   transform="matrix(0.45289137,0,0,0.45289137,785.64346,647.73558)" />
                <ellipse
                   ry="17.093615"
                   rx="34.245316"
                   cy="185.15538"
                   cx="-86.901894"
                   id="ellipse24371"
                   style="opacity:1;fill:#fcd095;fill-opacity:1;stroke:#000000;stroke-width:2.7185;stroke-linecap:butt;stroke-linejoin:round;stroke-miterlimit:4;stroke-dasharray:none;stroke-dashoffset:0;stroke-opacity:1"
                   transform="matrix(0.45289137,0,0,0.45289137,785.64346,647.73558)" />
                <path
                   id="path24373"
                   style="fill:#fcd095"
                   d="m -25.752,125.71 c 0,33.638 -29.408,59.89 -62.32,59.89 -32.912,0 -62.318,-26.25 -62.318,-59.89 0,-33.648 29.39,-59.922 62.318,-59.922 32.932,0 62.32,26.27 62.32,59.922"
                   transform="matrix(0.45289137,0,0,0.45289137,785.64346,647.73558)" />
                <path
                   id="path24375"
                   style="fill:#ffe2ae"
                   d="m -129.87,103.22 c 14.21,-16.636 38.996,-20.75 59.366,-15.128 22.334,6.164 33.676,24.218 37.052,46.194 4.964,-32.678 -22.32,-61.014 -54.622,-61.014 -32.338,0 -59.57,28.358 -54.618,61.042 1.686,-10.952 5.542,-22.544 12.822,-31.094"
                   transform="matrix(0.45289137,0,0,0.45289137,785.64346,647.73558)" />
                <path
                   id="path24377"
                   style="fill:#fabb78"
                   d="m -27.996,118.5 c -3.458,26.606 -18.06,46.952 -45.858,51.806 -34.02,5.946 -69.704,-15.82 -74.292,-51.798 -5.012,36.918 28.054,67.59 64.05,65.334 33.266,-2.084 60.426,-31.592 56.1,-65.342"
                   transform="matrix(0.45289137,0,0,0.45289137,785.64346,647.73558)" />
                <path
                   id="path24379"
                   style="fill:url(#linearGradient24494)"
                   d="m -148.22,118.65 c -1.626,3.388 -0.776,8.058 -0.266,11.564 -0.306,-3.848 -0.216,-7.736 0.266,-11.564 m 119.3,-5.55 c 7.804,33.822 -17.652,66.15 -51.272,70.374 -18.394,2.316 -37.308,-3.698 -50.714,-16.57 -12.084,-11.61 -15.428,-26.83 -21.216,-41.454 0,34.92 30.048,61.824 64.042,61.824 38.076,0 70.536,-34.264 62.94,-73.004 0.32,0.73 0.268,1.356 -0.162,1.888 -1.41,-0.762 -2.614,-1.782 -3.618,-3.058 m 2.292,-3.474 c 0.068,1.488 0.068,1.488 0,0 m -0.062,-1.038 c 0.068,1.116 0.068,1.116 0,0 m -0.05,-0.606 c 0.046,0.566 0.016,0.15 0,0"
                   transform="matrix(0.45289137,0,0,0.45289137,785.64346,647.73558)" />
                <path
                   id="path24381"
                   style="fill:#000000"
                   d="m -43.73,74.462 c 10.638,10.816 16.534,20.25 17.158,36.274 -0.032,-0.948 -12,-11.242 -13.824,-12.728 -4.482,-3.656 -9.65,4.152 -14.026,6.388 -11.062,5.658 -27.876,9.972 -40.064,5.94 -6.514,-2.152 -14.074,-6.518 -21.13,-4.374 -4.084,1.244 -6.696,4.808 -8.314,8.576 -1.644,3.822 -1.882,19.154 -4.364,20.774 -0.944,0.61 -8.952,-17.556 -10.018,-19.174 -12.982,-19.656 -12.666,14.688 -11.12,14.298 -8.346,2.078 -1.826,-33.21 -0.592,-35.98 5.862,-13.162 16.54,-23.318 29.45,-29.494 23.352,-11.172 57.814,-9.986 76.844,9.5"
                   transform="matrix(0.45289137,0,0,0.45289137,785.64346,647.73558)" />
                <path
                   id="path24383"
                   style="fill:#2e3436"
                   d="m -154.21,115.04 c 0.154,3.572 2.272,7.532 2.272,10.848 -0.452,-1.06 2.02,4.914 2.528,4.53 0.818,-5.44 -3.71,-10.07 -4.8,-15.378 M -44.14,90.926 c -1.442,0 -6.354,5.422 -7.848,6.348 -4.37,2.704 -9.23,4.59 -14.172,5.96 -13.096,3.63 -23.504,2.21 -36.462,0.072 -7.518,-1.236 -14.05,-5.742 -19.562,1.586 -2.124,2.822 -7.554,25.106 -6.964,25.106 -2.822,0 -8.008,-16.32 -9.512,-18.746 -1.778,-2.876 -7.21,-7.182 -10.642,-4.454 -3.548,2.816 -1.744,10.4 -1.18,14.07 -1.502,-7.986 3.398,-11.248 10.038,-7.104 2.602,2.492 9.646,21.89 12.038,21.594 0.822,-0.19 3.94,-20.18 5.622,-23.146 2.332,-4.126 6.072,-6.768 10.886,-6.768 8.244,0.282 15.376,6.136 23.528,6.136 10.35,0 20.958,-1.566 30.542,-5.604 3.196,-1.348 11.852,-9.676 14.346,-9.676 6.532,-1.27 10.82,14.808 16.682,14.808 0.918,0 -0.604,-8.762 -0.708,-9.346 0.826,1.526 0.838,2.854 0.042,3.986 -6.206,-0.002 -9.708,-14.822 -16.674,-14.822"
                   transform="matrix(0.45289137,0,0,0.45289137,785.64346,647.73558)" />
                <path
                   id="path24385"
                   style="fill:#333333"
                   d="m -52.272,91.826 c 0,19.094 -70.048,17.372 -70.048,1.274 12.872,2.814 27.114,5.152 40.276,3.792 3.418,-0.358 29.772,-9.798 29.772,-5.066"
                   transform="matrix(0.45289137,0,0,0.45289137,785.64346,647.73558)" />
                <path
                   id="path24387"
                   style="fill:#f3d4b2"
                   d="m -28.162,98.442 c 1.218,5.176 1.998,10.598 3.03,15.828 -0.332,-5.368 -1.208,-10.75 -3.03,-15.828"
                   transform="matrix(0.45289137,0,0,0.45289137,785.64346,647.73558)" />
                <path
                   id="path24389"
                   style="fill:#f2bd7e"
                   d="m -146.45,111.49 c -1.056,0 -1.672,6.406 -1.77,7.156 -0.18,0.382 0.07,-0.178 0.07,-0.144 1.164,-2.256 3.548,-2.25 5.66,-1.482 0.77,-4.136 0.83,-5.53 -3.96,-5.53 m 98.144,-10.932 c -7.298,5.644 -16.678,8.46 -25.664,9.9 -13.158,2.118 -20.28,-1.25 -32.75,-4.308 -16.566,-4.064 -20.018,14.188 -20.968,26.922 0.298,1.224 0.034,1.986 -0.796,2.294 -4.386,-5.25 -5.808,-12.628 -9.378,-18.516 -0.666,1.618 8.36,23.548 10.892,23.548 4.626,0 0.338,-33.652 20.664,-29.468 12.488,2.564 20.23,6.688 33.498,4.616 9.746,-1.526 20.278,-4.65 27.768,-11.39 -1.02,-1.262 -2.106,-2.46 -3.266,-3.598 m 6.042,-3.848 c 4.24,6.012 8.188,11.044 13.346,16.386 -1.464,-6.354 -7.502,-13.202 -13.346,-16.386"
                   transform="matrix(0.45289137,0,0,0.45289137,785.64346,647.73558)" />
                <path
                   id="path24391"
                   style="fill:#f3c58a"
                   d="m -141.59,113.1 c -1.644,6.084 -1.39,2.558 2.894,5.886 1.124,-3.012 -0.266,-4.434 -2.894,-5.886 m 98.106,-16.794 c -1.316,0 -3.846,3.506 -4.816,4.256 1.16,1.138 2.246,2.336 3.262,3.6 3.294,-2.96 3.26,-3.678 6.966,-0.402 -0.85,-1.724 -2.936,-7.454 -5.412,-7.454"
                   transform="matrix(0.45289137,0,0,0.45289137,785.64346,647.73558)" />
                <path
                   id="path24393"
                   style="fill:#f1b26f"
                   d="m -148.48,130.21 c 0.216,1.724 0.43,3.448 0.648,5.17 -0.08,-1.736 -0.298,-3.46 -0.648,-5.17 m 0.334,-11.714 v 0"
                   transform="matrix(0.45289137,0,0,0.45289137,785.64346,647.73558)" />
                <path
                   id="path24395"
                   style="fill:url(#linearGradient24496)"
                   d="m -146.84,111.51 c -4.256,0.388 -3.832,6.742 -3.61,9.59 -0.006,-0.04 1.514,9.01 1.042,9.32 -0.79,-1.466 -1.854,-2.86 -2.522,-4.504 0.25,1.138 2.226,9.584 3.996,9.584 -2.932,0 0.488,-21.668 1.094,-23.99 m 120.11,-3.532 c 0.066,0.92 0.118,1.834 0.156,2.754 0.038,0.238 -0.042,0.362 -0.232,0.376 -1.356,-0.724 -2.518,-1.698 -3.48,-2.928 0.56,1.698 1.552,7.972 4.99,7.972 1.024,0.002 -1.288,-7.7 -1.434,-8.174"
                   transform="matrix(0.45289137,0,0,0.45289137,785.64346,647.73558)" />
                <path
                   id="path24397"
                   style="fill:#d69c5d"
                   d="m -128.21,135.24 c -0.08,0.086 -0.17,0.132 -0.276,0.132 0.092,-0.046 0.184,-0.094 0.276,-0.132 m -21.39,-4.882 c 0.05,0.028 0.098,0.054 0.148,0.08 -0.05,-0.026 -0.098,-0.052 -0.148,-0.08 m -1.338,-2.248 c 0.132,0.25 0.264,0.506 0.394,0.756 -0.132,-0.25 -0.264,-0.506 -0.394,-0.756 m -0.382,-0.782 c 0.214,0.432 0.214,0.432 0,0 m -0.372,-0.83 c 0.28,0.626 0.28,0.626 0,0 m -0.244,-0.598 c 0,0.026 0.392,0.992 0,0 m 5.486,-14.406 c -0.734,0.236 -1.462,0.474 -2.198,0.71 3.216,-1.506 9.024,2.084 8.196,1.566 -1.808,-1.296 -3.808,-2.058 -5.998,-2.276 m 119.79,-0.426 c -0.05,0.012 -0.1,0.032 -0.148,0.046 0.048,-0.014 0.098,-0.034 0.148,-0.046 m 0.022,-1.64 c 0.014,0.264 0.014,0.264 0,0 m -0.074,-1.176 c 0.028,0.448 0.028,0.448 0,0 m -84.82,-2.802 c 3.348,0.236 6.584,0.972 9.706,2.216 -3.118,-1.112 -6.368,-2.124 -9.706,-2.216 m -0.374,0 c -0.478,0 -0.478,0 0,0 m 77.388,-1.744 c 0.844,0.902 1.694,1.802 2.54,2.704 -0.846,-0.902 -1.69,-1.802 -2.54,-2.704 m 6.306,-5.392 c 0.724,3.084 1.208,6.202 1.454,9.36 -0.146,-1.83 -0.752,-7.526 -1.454,-9.36 M -43.49,96.306 c -0.626,0.178 -0.626,0.178 0,0"
                   transform="matrix(0.45289137,0,0,0.45289137,785.64346,647.73558)" />
                <path
                   id="path24399"
                   style="fill:#2e3436"
                   d="m -149.41,130.42 c -0.056,0.02 -0.056,0.02 0,0 m -2.528,-4.53 c 0,1.044 1.806,3.972 2.338,4.464 -0.962,-1.388 -1.744,-2.872 -2.338,-4.464 m 1.91,-0.968 c 0,-1.988 0.832,5.34 0.618,5.498 0.04,-1.854 -0.168,-3.69 -0.618,-5.498 m 10.404,-10.464 c 2.084,2.696 8.33,20.91 11.138,20.91 -5.462,-5.612 -5.558,-15.182 -11.138,-20.91 m -0.826,-0.692 m -8.196,-1.564 c -2.266,1.808 -2.232,6.446 -1.806,8.9 -0.204,-2.58 -0.576,-6.98 1.806,-8.9 m 122.07,-1.468 c -0.112,0.434 -0.112,0.434 0,0 m -5.402,-4.328 c 0.928,1.144 3.552,4.704 5.17,4.704 -1.99,-1.258 -3.714,-2.828 -5.17,-4.704 m -80.288,-0.96 c -4.67,0.11 -8.268,2.774 -10.528,6.768 -1.682,2.964 -4.798,22.956 -5.622,23.146 0.75,-0.394 0.99,-1.158 0.724,-2.288 0.67,-9.504 2.522,-27.324 15.426,-27.626 m 0.36,0 c 0.762,-0.008 1.522,0.046 2.278,0.15 -0.76,-0.052 -1.518,-0.104 -2.278,-0.15 m 67.946,-9.012 c -8.74,5.828 -14.868,10.874 -25.732,13.22 -14.874,3.216 -23.592,-0.486 -37.614,-3.644 12.528,2.83 19.952,6.578 33.204,4.466 12.708,-2.018 20.014,-7.294 30.142,-14.042 m 0.472,-0.132 c -0.002,0 -0.002,0 0,0 3.788,1.506 6.506,4.876 9.298,7.75 -1.796,-1.848 -6.116,-7.75 -9.298,-7.75"
                   transform="matrix(0.45289137,0,0,0.45289137,785.64346,647.73558)" />
                <path
                   id="path24401"
                   style="fill:#000000"
                   d="m -152.55,120.31 c 0,-37.412 36.838,-62.55 72.022,-58.496 38.386,4.426 68.058,43.518 51.064,81.124 23.134,-41.612 -15.688,-88.47 -59.258,-88.47 -43.574,0 -81.984,47.004 -58.922,88.476 -3.208,-7.098 -4.906,-14.838 -4.906,-22.634"
                   transform="matrix(0.45289137,0,0,0.45289137,785.64346,647.73558)" />
                <path
                   id="path24409"
                   d="m 720.5452,734.42179 5.02888,-4.55146 4.72648,53.40369 -5.56875,-1.50444 z"
                   style="opacity:1;fill:#632d00;fill-opacity:1;stroke:none;stroke-width:0.18437;stroke-linecap:round;stroke-miterlimit:4;stroke-dasharray:none;stroke-opacity:1" />
                <path
                   style="opacity:1;fill:#632d00;fill-opacity:1;stroke:none;stroke-width:0.18437;stroke-linecap:round;stroke-miterlimit:4;stroke-dasharray:none;stroke-opacity:1"
                   d="m 773.33437,737.75269 -4.62377,-5.49672 -7.44144,52.29377 5.8454,-0.95112 z"
                   id="path24411" />
              </g>
            </g>
          </g>
          <g
             id="g4376"
             transform="matrix(-0.13882932,0.00991218,0.00991218,0.13882932,1847.9539,1274.9513)">
            <g
               style="stroke:#000000;stroke-opacity:1"
               id="g4213"
               transform="translate(432.81276,-1.6483431)">
              <path
                 id="path2987-1"
                 d="m 1104.6,117.47 c 0,0 -56.551,37.648 -69.04,67.246 -10.922,25.884 -16.143,61.289 0,84.282 39.439,56.174 125.1,66.988 193.67,69.936 74.168,3.1888 153.94,-9.1815 215.19,-57.384 25.983,-20.45 30.206,-64.931 21.519,-96.835 -13.596,-49.93 -72.626,-75.316 -72.626,-75.316 z"
                 style="fill:url(#radialGradient9905);stroke:#000000;stroke-opacity:1" />
              <path
                 id="path2991"
                 d="m 1393.3,108.5 -6.7188,0.1875 -0.1875,1.75 c 2.0388,0.89187 55.214,24.547 67.719,70.469 8.1458,29.914 4.1751,71.638 -20.188,90.812 -57.424,45.196 -132.21,56.771 -201.75,53.781 -64.296,-2.7644 -144.61,-12.892 -181.59,-65.562 -15.136,-21.559 -10.24,-54.762 0,-79.031 10.657,-25.258 55.082,-56.444 63.062,-61.906 -0.9548,-0.86425 -1.9087,-1.699 -2.9062,-2.5938 l -6.1563,0.15625 c 0,0 -56.542,37.651 -69.031,67.25 -10.922,25.884 -16.143,61.288 0,84.281 39.439,56.174 125.08,66.989 193.66,69.938 74.168,3.1888 153.98,-9.173 215.22,-57.375 25.983,-20.45 30.188,-64.94 21.5,-96.844 -13.596,-49.93 -72.625,-75.312 -72.625,-75.312 z"
                 style="fill:url(#linearGradient9907);stroke:#000000;stroke-opacity:1" />
              <path
                 id="path2989-5"
                 d="m 1099.3,173.06 c 0,0 25.998,54.907 131.8,54.694 137.72,-0.27814 163.18,-60.073 163.18,-60.073 0,0 5.4961,-64.511 -8.0695,-95.938 -21.783,-50.464 -58.342,-67.863 -98.628,-82.489 -26.969,-9.7915 -59.849,-11.636 -86.075,0 -42.745,18.964 -81.429,40.653 -94.145,104.01 -5.2611,26.213 -8.0696,79.799 -8.0696,79.799 z"
                 style="fill:url(#linearGradient9909);stroke:#000000;stroke-opacity:1" />
              <path
                 id="path3044"
                 style="color:#000000;opacity:0.5;fill:#e3d5ae;stroke:#000000;stroke-opacity:1"
                 d="m 1241.4,-18.781 c -13.923,0.1003 -27.675,2.5771 -39.969,8.0312 -42.745,18.964 -81.44,40.645 -94.156,104 -1.7043,8.4915 -3.135,19.859 -4.3125,31.344 25.553,13.692 55.589,21.562 87.719,21.562 81.747,0 149.88,-51.072 165.28,-118.84 -19.57,-18.703 -43.29,-28.921 -68.469,-38.062 -14.327,-5.2017 -30.314,-8.1449 -46.094,-8.0312 z" />
              <path
                 id="path3019-9"
                 d="m 1249.6,0.74196 -4.4831,171.25 9.8628,-0.89662 z"
                 style="opacity:0.5;fill:url(#linearGradient9911);stroke:#000000;stroke-opacity:1" />
              <path
                 id="path3021"
                 d="m 1113.6,124.46 c 0,0 4.5594,-54.07 43.965,-96.353 14.408,-15.46 53.25,-34.409 53.25,-34.409 l 5.5594,2.2954 c 0,0 -38.763,20.847 -54.016,36.263 -37.284,37.684 -48.759,92.204 -48.759,92.204 z"
                 style="opacity:0.5;fill:#b28f64;stroke:#000000;stroke-opacity:1" />
              <path
                 id="path3023-9"
                 style="opacity:0.5;fill:#b28f64;stroke:#000000;stroke-opacity:1"
                 d="m 1281.9,-6.5701 c 0,0 53.209,21.829 73.523,41.244 32.655,31.211 35.865,82.489 35.865,82.489 l -2.6899,5.3797 c 0,0 -2.6517,-46.708 -37.658,-83.385 -19.058,-19.968 -69.04,-45.727 -69.04,-45.727 z" />
              <path
                 id="path3033"
                 style="fill:#e3d5ae;stroke:#000000;stroke-opacity:1"
                 d="m 1393.6,104.41 c -5.2182,9.4887 -40.026,37.163 -144.61,63.416 -70.091,-17.769 -133.68,-36.926 -145.34,-52.041 -3.3207,26.949 -3.5087,65.353 -3.5087,65.353 0,0 26.008,54.901 131.81,54.688 137.72,-0.27814 163.19,-60.062 163.19,-60.062 0,0 2.36,-40.289 -1.5403,-71.353 z" />
              <path
                 id="path3066-14"
                 style="color:#000000;opacity:0.3;fill:#000000;stroke:#000000;stroke-opacity:1;filter:url(#filter3889)"
                 d="m 1217.5,-23.133 c -2.3905,2.0684 -10.432,3.8718 -25.659,3.8718 -15.227,0 -23.906,-1.9053 -26.934,-3.9736 5.2592,-2.4759 10.75,-4.9925 25.977,-4.9925 15.227,0 24.224,2.6185 26.615,5.0944 z"
                 transform="matrix(1.4065,0,0,2.2,-426.74,45.081)" />
              <path
                 id="path3042"
                 d="m 1212.8,-6.0572 c 11.082,4.3989 15.048,7.6263 35.343,7.3048 23.855,-0.37788 23.878,-0.8973 37.243,-6.6352 -5.5215,-19.104 -12.707,-32.066 -33.091,-32.638 -25.429,-0.71393 -31.764,6.3167 -39.495,31.968 z"
                 style="fill:url(#radialGradient9913);stroke:#000000;stroke-opacity:1" />
              <path
                 id="path3051"
                 style="opacity:0.5;fill:#98734e;stroke:#000000;stroke-opacity:1"
                 d="m 1224.3,-12.312 -4.3438,9.25 c 1.1227,0.45964 2.2194,0.8806 3.3438,1.2812 l 1,-10.531 z" />
              <path
                 id="path3053"
                 style="opacity:0.5;fill:#98734e;stroke:#000000;stroke-opacity:1"
                 d="m 1276.3,-12.531 2.1874,10.062 c 1.131,-0.45434 2.3933,-0.97939 3.75,-1.5625 l -5.9374,-8.5 z" />
              <path
                 id="path4066-9"
                 style="color:#000000;text-indent:0;text-transform:none;opacity:0.7;fill:#c09e58;stroke:#000000;stroke-opacity:1"
                 d="m 1102.7,124.47 c -0.066,0.69991 -0.1563,1.3871 -0.2188,2.0938 4.3019,1.9356 28.5,12.764 42.188,17.656 34.274,12.25 69.094,23.454 104.72,31.125 18.436,3.9699 37.285,5.4383 55.906,7.5938 13.281,1.5373 26.591,3.1754 40,3.8125 13.151,0.62483 26.273,0 39.344,0 h 2.9688 c 0.2915,-0.33965 0.5721,-0.6718 0.8438,-1 v -1 h -3.8126 c -13.134,0 -26.225,0.61883 -39.25,0 -13.309,-0.63236 -26.585,-2.2429 -39.875,-3.7812 -18.668,-2.161 -37.425,-3.6611 -55.687,-7.5938 -35.496,-7.6437 -70.268,-18.796 -104.5,-31.031 -13.987,-4.9993 -39.775,-16.59 -42.625,-17.875 z m -0.4376,5.0938 c -0.059,0.72369 -0.1319,1.4292 -0.1874,2.1562 5.264,2.3672 28.373,12.678 41.687,17.438 34.274,12.25 69.094,23.422 104.72,31.094 18.435,3.9699 37.285,5.4695 55.906,7.625 13.281,1.5373 26.591,3.1754 40,3.8125 12.9,0.61289 25.801,0.0228 38.625,0 0.6864,-0.67729 1.3511,-1.3495 1.9688,-2 h -1.2188 c -13.134,0 -26.256,0.61883 -39.281,0 -13.31,-0.63236 -26.585,-2.2429 -39.875,-3.7812 -18.669,-2.161 -37.425,-3.6611 -55.688,-7.5938 -35.496,-7.6437 -70.268,-18.796 -104.5,-31.031 -13.628,-4.8712 -38.217,-15.941 -42.156,-17.719 z m -0.4374,5.8438 c -0.049,0.7073 -0.1102,1.4183 -0.1563,2.125 5.3697,2.4174 28.382,12.724 41.656,17.469 34.273,12.25 69.094,23.422 104.72,31.094 18.435,3.9699 37.285,5.4695 55.906,7.625 13.281,1.5373 26.591,3.1754 40,3.8125 10.848,0.51539 21.673,0.19561 32.469,0.0625 0.8288,-0.67913 1.5809,-1.3658 2.3437,-2.0312 -11.614,0.10428 -23.193,0.51637 -34.719,-0.0312 -13.31,-0.63236 -26.585,-2.2741 -39.875,-3.8125 -18.669,-2.161 -37.425,-3.6611 -55.688,-7.5938 -35.496,-7.6437 -70.268,-18.796 -104.5,-31.031 -13.628,-4.8712 -38.217,-15.914 -42.156,-17.688 z m -0.4,5.6 c -0.042,0.71385 -0.085,1.4155 -0.125,2.125 7.6432,3.4183 28.052,12.444 40.187,16.781 34.274,12.25 69.126,23.454 104.75,31.125 18.436,3.9699 37.254,5.4695 55.875,7.625 13.281,1.5373 26.591,3.1442 40,3.7812 9.2268,0.43837 18.457,0.29159 27.656,0.15625 0.9706,-0.68047 1.9095,-1.3566 2.8125,-2.0312 -10.147,0.14313 -20.265,0.38511 -30.344,-0.0937 -13.309,-0.63236 -26.585,-2.2741 -39.875,-3.8125 -18.668,-2.161 -37.456,-3.6611 -55.719,-7.5938 -35.496,-7.6437 -70.236,-18.796 -104.47,-31.031 -12.506,-4.4698 -34.066,-14.039 -40.75,-17.031 z m -0.3126,5.5938 c -0.036,0.70838 -0.091,1.4249 -0.125,2.125 8.9364,3.9712 27.591,12.148 38.719,16.125 34.274,12.25 69.094,23.422 104.72,31.094 18.435,3.9699 37.285,5.4695 55.906,7.625 13.281,1.5373 26.591,3.1754 40,3.8125 7.2645,0.34515 14.507,0.28902 21.75,0.1875 1.1381,-0.67979 2.2463,-1.3504 3.3125,-2.0312 -8.3438,0.13034 -16.673,0.23791 -24.969,-0.15625 -13.31,-0.63236 -26.585,-2.2429 -39.875,-3.7812 -18.669,-2.161 -37.425,-3.6611 -55.688,-7.5938 -35.496,-7.6437 -70.267,-18.796 -104.5,-31.031 -11.362,-4.0612 -30.742,-12.584 -39.25,-16.375 z m -0.25,5.7812 c -0.031,0.72821 -0.065,1.4424 -0.094,2.1562 9.4289,4.1781 26.21,11.505 36.688,15.25 34.274,12.25 69.126,23.422 104.75,31.094 18.435,3.9699 37.254,5.4695 55.875,7.625 13.281,1.5373 26.591,3.1754 40,3.8125 4.9525,0.2353 9.8953,0.30028 14.844,0.28125 1.3603,-0.68245 2.6581,-1.3717 3.9374,-2.0625 -6.2467,0.0665 -12.476,0.0764 -18.687,-0.21875 -13.31,-0.63236 -26.585,-2.2429 -39.875,-3.7812 -18.669,-2.161 -37.425,-3.6611 -55.688,-7.5938 -35.496,-7.6437 -70.236,-18.796 -104.47,-31.031 -10.564,-3.776 -27.993,-11.407 -37.281,-15.531 z m -0.2187,5.4375 c -0.027,0.7507 -0.038,1.4281 -0.062,2.1562 9.6123,4.2585 25.432,11.14 35.531,14.75 34.274,12.25 69.126,23.422 104.75,31.094 18.436,3.9699 37.254,5.4695 55.875,7.625 13.281,1.5373 26.591,3.1754 40,3.8125 1.8312,0.087 3.6691,0.14389 5.5,0.1875 1.5595,-0.64657 3.0888,-1.2753 4.5626,-1.9375 -3.3297,-0.0277 -6.6504,-0.0923 -9.9688,-0.25 -13.31,-0.63236 -26.585,-2.2741 -39.875,-3.8125 -18.669,-2.161 -37.425,-3.6611 -55.688,-7.5938 -35.496,-7.6437 -70.236,-18.764 -104.47,-31 -10.203,-3.6469 -26.644,-10.817 -36.156,-15.031 z m -0.1563,5.2188 c -0.021,0.71083 -0.075,1.4444 -0.094,2.125 9.7538,4.2925 24.36,10.608 33.938,14.031 34.274,12.25 69.094,23.422 104.72,31.094 18.435,3.9699 37.285,5.4695 55.906,7.625 12.137,1.4048 24.293,2.8926 36.531,3.625 1.6617,-0.57145 3.2947,-1.1586 4.875,-1.75 -0.4386,-0.0181 -0.874,-0.0417 -1.3124,-0.0625 -13.31,-0.63236 -26.585,-2.2429 -39.875,-3.7812 -18.669,-2.161 -37.425,-3.6611 -55.688,-7.5938 -35.496,-7.6437 -70.267,-18.796 -104.5,-31.031 -9.6804,-3.4601 -24.8,-10.003 -34.5,-14.281 z m 151.66,4 c -1.0703,0.2727 -2.1022,0.54008 -3.1875,0.8125 -0.7014,-0.17781 -1.3937,-0.35317 -2.0938,-0.53125 l -0.1562,0.75 c 0,0 31.1,5.9058 46.938,7.5938 32.53,3.467 65.284,5.9952 98.031,5.8125 0.5213,-0.74758 0.9855,-1.4127 1.375,-2.0312 -33.096,0.26503 -66.241,-2.2698 -99.188,-5.7812 -11.761,-1.2535 -32.281,-4.8965 -41.719,-6.625 z m -151.81,0.78125 c -0.021,0.82616 -0.045,1.4223 -0.062,2.1875 9.7608,4.3011 23.83,10.354 33.156,13.688 34.273,12.25 69.125,23.422 104.75,31.094 18.435,3.9699 37.254,5.4695 55.875,7.625 8.5478,0.98946 17.097,2.0021 25.687,2.7812 1.8083,-0.50607 3.5547,-1.032 5.2813,-1.5625 -10.255,-0.79897 -20.5,-2.0323 -30.75,-3.2188 -18.669,-2.161 -37.425,-3.6611 -55.688,-7.5938 -35.496,-7.6437 -70.236,-18.796 -104.47,-31.031 -9.4419,-3.3748 -24.03,-9.679 -33.781,-13.969 z m -0.125,5.0938 c -0.015,0.79556 -0.02,1.4639 -0.031,2.1562 9.7676,4.2874 23.601,10.239 32.812,13.531 34.274,12.25 69.094,23.454 104.72,31.125 18.435,3.9699 37.285,5.4695 55.906,7.625 3.9236,0.45416 7.8509,0.90041 11.781,1.3438 2.0717,-0.44577 4.1125,-0.86603 6.0937,-1.3438 -5.8831,-0.62511 -11.772,-1.3188 -17.656,-2 -18.669,-2.161 -37.425,-3.6611 -55.688,-7.5938 -35.496,-7.6437 -70.268,-18.796 -104.5,-31.031 -9.3396,-3.3382 -23.685,-9.5216 -33.438,-13.812 z m -0.062,4.75 c -0.01,0.79711 -0.029,1.832 -0.031,2.1562 9.571,4.1732 21.828,9.3872 30.188,12.375 34.273,12.25 69.094,23.454 104.72,31.125 18.435,3.9699 37.285,5.4383 55.906,7.5938 0.6348,0.0735 1.2713,0.14493 1.9062,0.21875 2.2821,-0.38142 4.5019,-0.79944 6.6875,-1.2188 -2.7904,-0.31973 -5.5838,-0.64565 -8.375,-0.96875 -18.669,-2.161 -37.425,-3.6611 -55.688,-7.5938 -35.496,-7.6437 -70.268,-18.796 -104.5,-31.031 -8.4973,-3.0372 -21.167,-8.4392 -30.812,-12.656 z m 1.2187,5.7188 c 0.4982,0.82189 1.1594,1.8335 2,3.0312 8.3388,3.5784 17.598,7.446 24.219,9.8125 34.274,12.25 69.126,23.454 104.75,31.125 14.114,3.0394 28.447,4.6411 42.75,6.1875 2.9831,-0.32691 5.9078,-0.67402 8.75,-1.0625 -17.137,-1.9017 -34.308,-3.4859 -51.062,-7.0938 -35.496,-7.6437 -70.268,-18.796 -104.5,-31.031 -7.2746,-2.6001 -17.932,-7.0875 -26.906,-10.969 z m 8.4376,10.969 c 1.0649,1.1502 2.2279,2.3324 3.5,3.5625 3.8914,1.5752 7.6294,3.052 10.719,4.1562 34.274,12.25 69.094,23.422 104.72,31.094 4.5269,0.97481 9.0891,1.808 13.656,2.5312 3.7866,-0.0944 7.4863,-0.25297 11.094,-0.4375 -8.1671,-1.0512 -16.287,-2.303 -24.312,-4.0312 -35.496,-7.6437 -70.268,-18.796 -104.5,-31.031 -4.1596,-1.4867 -9.4447,-3.5878 -14.875,-5.8438 z m 9.0624,8.5625 c 1.5827,1.3145 3.301,2.6311 5.125,3.9688 31.205,11.102 62.904,21.281 95.219,28.688 3.4067,0.14247 6.9085,0.26225 10.5,0.28125 -0.9268,-0.18698 -1.8569,-0.39471 -2.7812,-0.59375 -35.496,-7.6437 -70.236,-18.796 -104.47,-31.031 -1.1141,-0.39821 -2.338,-0.8347 -3.5938,-1.3125 z m 8.5626,6.375 c 2.3389,1.5857 4.8239,3.1929 7.5312,4.75 21.612,7.4591 43.458,14.36 65.594,20.094 4.1338,0.47896 8.4185,0.87383 12.875,1.1562 -29.117,-6.9111 -57.735,-16.045 -86,-26 z" />
              <path
                 id="path4074-1"
                 style="color:#000000;text-indent:0;text-transform:none;opacity:0.7;fill:#c09e58;stroke:#000000;stroke-opacity:1"
                 d="m 1393.8,106.34 c -0.5178,0.0284 -1.0407,0.0338 -1.5625,0.0625 v 0.0312 c -0.945,1.2144 -2.2558,2.5987 -3.9375,4.1562 2.3199,-1.2165 4.156,-2.1575 5.625,-2.9375 -0.048,-0.43636 -0.075,-0.87914 -0.125,-1.3125 z m 0.6563,6.375 c -11.892,6.6264 -24.397,12.131 -36.938,17.625 -7.749,3.8918 -16.946,8.041 -27.781,12.312 -7.0601,3.0759 -14.168,6.0357 -21.375,8.6875 -12.238,4.5025 -24.91,7.8362 -37.438,11.781 l -3.625,1.1562 0.3125,0.9375 c 0.3577,0.23144 0.7137,0.48233 1.0938,0.71875 l 2.8124,-0.90625 c 12.468,-3.9261 25.175,-7.2664 37.531,-11.812 12.599,-4.6352 24.825,-10.201 37.031,-15.656 16.26,-7.2674 32.884,-14.005 48.562,-22.656 -0.059,-0.7326 -0.1226,-1.4593 -0.1874,-2.1875 z m 0.4374,5.5 c -15.212,8.2855 -31.371,14.858 -47.281,21.969 -12.214,5.4592 -24.401,10.993 -36.906,15.594 -12.238,4.5024 -24.941,7.8362 -37.469,11.781 l -1.1562,0.375 c 0.7844,0.43495 1.6419,0.87266 2.5,1.3125 12.239,-3.8302 24.692,-7.1344 36.812,-11.594 12.598,-4.6352 24.825,-10.201 37.031,-15.656 15.582,-6.9643 31.496,-13.479 46.594,-21.625 -0.045,-0.72043 -0.075,-1.4373 -0.125,-2.1562 z m 0.375,6.3438 c -14.687,7.838 -30.211,14.198 -45.5,21.031 -12.214,5.4592 -24.37,11.024 -36.875,15.625 -10.829,3.9843 -21.985,7.0799 -33.094,10.469 0.9275,0.40561 1.8492,0.81993 2.8437,1.2188 10.337,-3.1156 20.746,-6.0627 30.938,-9.8125 12.599,-4.6353 24.794,-10.201 37,-15.656 14.954,-6.6835 30.23,-12.932 44.781,-20.625 -0.034,-0.75023 -0.055,-1.498 -0.094,-2.25 z m 0.25,5.7188 c -13.812,7.1402 -28.295,13.123 -42.562,19.5 -12.215,5.4592 -24.37,11.024 -36.875,15.625 -9.4695,3.484 -19.216,6.2761 -28.938,9.1875 1.064,0.37225 2.1823,0.73623 3.3126,1.0938 8.8153,-2.6341 17.643,-5.2792 26.312,-8.4688 12.598,-4.6352 24.825,-10.138 37.031,-15.594 13.943,-6.2319 28.134,-12.127 41.781,-19.125 -0.023,-0.73757 -0.036,-1.4764 -0.063,-2.2188 z m 0.1,5.72 c -12.888,6.4693 -26.298,12.023 -39.531,17.938 -12.214,5.4592 -24.401,10.993 -36.906,15.594 -7.7944,2.8677 -15.752,5.2744 -23.75,7.6562 1.2215,0.32915 2.4602,0.63094 3.75,0.9375 6.939,-2.0787 13.862,-4.2075 20.688,-6.7188 12.598,-4.6352 24.825,-10.201 37.031,-15.656 12.912,-5.771 26.032,-11.228 38.75,-17.562 -0.013,-0.72458 -0.014,-1.455 -0.031,-2.1875 z m 0.094,5.75 c -11.797,5.7402 -23.969,10.842 -36,16.219 -12.214,5.4592 -24.401,10.993 -36.906,15.594 -5.8362,2.1472 -11.772,3.9996 -17.75,5.8125 1.4277,0.27467 2.8725,0.53892 4.375,0.78125 4.7257,-1.4682 9.4095,-3.0068 14.063,-4.7188 12.598,-4.6352 24.825,-10.201 37.031,-15.656 11.722,-5.239 23.615,-10.203 35.219,-15.812 -0.01,-0.73818 -0.023,-1.468 -0.031,-2.2188 z m 0.031,5.625 c -10.938,5.2093 -22.178,9.9122 -33.281,14.875 -12.214,5.4592 -24.37,11.024 -36.875,15.625 -3.1178,1.1472 -6.2698,2.1922 -9.4375,3.2188 1.6047,0.18897 3.2557,0.32042 4.9375,0.46875 1.7331,-0.59154 3.4669,-1.1795 5.1875,-1.8125 12.598,-4.6353 24.794,-10.201 37,-15.656 10.79,-4.8224 21.747,-9.4242 32.469,-14.5 0,-0.73499 3e-4,-1.4658 0,-2.2188 z m 0,5.1875 c -9.9737,4.6511 -20.139,8.9323 -30.219,13.438 -12.214,5.4592 -24.401,10.993 -36.906,15.594 -0.412,0.15152 -0.8059,0.31976 -1.2188,0.46875 1.6849,0.0894 3.3997,0.1416 5.1562,0.1875 11.453,-4.3745 22.596,-9.4521 33.75,-14.438 9.7475,-4.3566 19.645,-8.5521 29.375,-13.062 0.01,-0.75655 0.056,-1.4039 0.063,-2.1875 z m -0.094,5.0312 c -9.2343,4.2464 -18.632,8.2474 -27.938,12.406 -9.42,4.2103 -18.803,8.4703 -28.344,12.312 1.8061,-0.0125 3.6232,-0.0333 5.5,-0.0937 7.96,-3.3236 15.8,-6.8638 23.656,-10.375 8.9935,-4.0196 18.104,-7.8858 27.094,-12 0.015,-0.70415 0.018,-1.5117 0.031,-2.25 z m -0.125,5.5312 c -8.5756,3.9005 -17.285,7.6154 -25.906,11.469 -5.4084,2.4173 -10.795,4.8242 -16.219,7.1875 2.0332,-0.13942 4.1089,-0.33418 6.2188,-0.53125 3.6156,-1.6034 7.2065,-3.2321 10.812,-4.8438 8.3067,-3.7126 16.707,-7.2621 25.031,-11.031 0.023,-0.74469 0.04,-1.4399 0.062,-2.25 z m -0.125,4.3125 c -7.352,3.289 -14.76,6.458 -22.125,9.75 -2.5653,1.1466 -5.1221,2.2944 -7.6875,3.4375 2.2106,-0.25652 4.4274,-0.52209 6.7187,-0.84375 0.5835,-0.2611 1.1667,-0.52048 1.75,-0.78125 7.0417,-3.1473 14.174,-6.1968 21.25,-9.3438 0.031,-0.78064 0.062,-1.2998 0.094,-2.2188 z m -0.2188,4.8438 c -4.6156,2.0423 -9.2528,4.054 -13.875,6.0938 2.8276,-0.48317 5.7127,-1.0408 8.6563,-1.625 1.7093,-0.74855 3.4167,-1.4967 5.125,-2.25 0.017,-0.30228 0.056,-1.4359 0.094,-2.2188 z" />
              <path
                 id="path4151-0"
                 style="opacity:0.5;fill:#000000;stroke:#000000;stroke-opacity:1;filter:url(#filter4153)"
                 d="m 1237.6,244.72 c -61.696,0.41734 -176.49,16.61 -204.28,20.656 0.718,1.2423 1.4841,2.4451 2.3126,3.625 3.7787,5.3822 7.9908,10.324 12.562,14.906 4.3141,-0.63798 126.81,-18.67 189.41,-19.094 68.55,-0.46396 204.59,17.841 205.31,17.938 0.5197,-0.4019 1.0454,-0.7805 1.5625,-1.1875 4.7734,-3.7569 8.828,-8.348 12.188,-13.5 l -4.75,-4.3125 c 0,0 -142.6,-19.516 -214.31,-19.031 z" />
              <path
                 id="path4079-7"
                 style="fill:url(#linearGradient9915);stroke:#000000;stroke-opacity:1"
                 d="m 1237.6,244.72 c -61.696,0.41734 -176.49,16.61 -204.28,20.656 0.718,1.2423 1.4841,2.4451 2.3126,3.625 3.7787,5.3822 7.9908,10.324 12.562,14.906 4.3141,-0.63798 126.81,-18.67 189.41,-19.094 68.55,-0.46396 204.59,17.841 205.31,17.938 0.5197,-0.4019 1.0454,-0.7805 1.5625,-1.1875 4.7734,-3.7569 8.828,-8.348 12.188,-13.5 l -4.75,-4.3125 c 0,0 -142.6,-19.516 -214.31,-19.031 z" />
              <path
                 id="path4157-5"
                 style="opacity:0.3;fill:#000000;stroke:#000000;stroke-opacity:1;filter:url(#filter4171)"
                 d="m 1351.9,270.47 9.1411,2.8953 c 0,0 15.522,-6.3558 23.306,-4.8208 4.7819,0.94305 12.122,8.1764 12.122,8.1764 l 15.067,2.2198 13.816,-17.229 -16.958,-2.4184 c 0,0 -13.363,-6.4189 -20.591,-7.3685 -7.5946,-0.99781 -22.902,1.891 -22.902,1.891 l -7.8885,1.5237 c 0,0 -23.392,-1.1085 -24.905,3.92 -1.3235,4.3993 19.792,11.211 19.792,11.211 z" />
              <path
                 id="path4100-8"
                 d="m 1443.2,281.5 -8.0696,6.2763 c 0,0 4.2087,1.3338 6.2764,0.89662 2.7586,-0.58322 5.0354,-2.6444 7.1729,-4.4831 4.1779,-3.5938 10.748,-7.0417 10.759,-12.553 0,-1.9612 -3.8106,-4.4831 -3.8106,-4.4831 z"
                 style="fill:#552201;stroke:#000000;stroke-opacity:1" />
              <path
                 id="path4104-7"
                 d="m 1356.2,270.47 9.1411,2.8953 c 0,0 15.522,-6.3558 23.306,-4.8208 4.7819,0.94305 12.122,8.1764 12.122,8.1764 l 15.067,2.2198 13.816,-17.229 -16.958,-2.4184 c 0,0 -13.363,-6.4189 -20.591,-7.3685 -7.5946,-0.99781 -22.902,1.891 -22.902,1.891 l -7.8885,1.5237 c 0,0 -23.392,-1.1085 -24.905,3.92 -1.3235,4.3993 19.792,11.211 19.792,11.211 z"
                 style="fill:url(#linearGradient9917);stroke:#000000;stroke-opacity:1" />
              <path
                 id="path4131-0"
                 d="m 1383.4,280.55 6.34,-32.651 h 3.17 l 1.902,0.634 -7.291,33.919 -2.219,1.585 z"
                 style="fill:url(#linearGradient9919);stroke:#000000;stroke-opacity:1" />
              <path
                 id="path4177"
                 style="color:#000000;text-indent:0;text-transform:none;opacity:0.5;fill:#000000;stroke:#000000;stroke-opacity:1;filter:url(#filter4179)"
                 d="m 1392.8,248.58 c -6.553,-0.75215 -12.757,0.33542 -17.647,2.9067 -4.89,2.57128 -8.58,6.8122 -9.2168,12.047 -0.6368,5.2348 1.9368,10.171 6.0752,13.778 4.1384,3.6076 9.9076,6.0933 16.461,6.8454 6.5529,0.75215 12.76,-0.35893 17.65,-2.9302 4.89,-2.57127 8.5771,-6.7887 9.2139,-12.024 0.6368,-5.2348 -1.9339,-10.194 -6.0723,-13.802 -4.1384,-3.6076 -9.9105,-6.0698 -16.463,-6.8219 z m 16.404,11.029 c 3.7311,5.3669 0.9468,14.359 -6.0648,16.296 -3.5767,1.8807 -8.5612,2.8535 -13.935,2.2367 -5.3739,-0.61682 -13.182,-4.9132 -16.209,-7.5518 -5.9764,-5.2709 -0.9996,-13.636 4.1628,-16.613 10.857,-5.369 22.345,-2.7068 32.046,5.6321 z" />
              <path
                 id="path4102-4"
                 d="m 1392.8,248.58 c -6.553,-0.75215 -12.757,0.33542 -17.647,2.9067 -4.89,2.57128 -8.58,6.8122 -9.2168,12.047 -0.6368,5.2348 1.9368,10.171 6.0752,13.778 4.1384,3.6076 9.9076,6.0933 16.461,6.8454 6.5529,0.75215 12.76,-0.35893 17.65,-2.9302 4.89,-2.57127 8.5771,-6.7887 9.2139,-12.024 0.6368,-5.2348 -1.9339,-10.194 -6.0723,-13.802 -4.1384,-3.6076 -9.9105,-6.0698 -16.463,-6.8219 z m 16.404,11.029 c 3.7311,5.3669 0.9468,14.359 -6.0648,16.296 -3.5767,1.8807 -8.5612,2.8535 -13.935,2.2367 -5.3739,-0.61682 -13.182,-4.9132 -16.209,-7.5518 -5.9764,-5.2709 -0.9996,-13.636 4.1628,-16.613 10.857,-5.369 22.345,-2.7068 32.046,5.6321 z"
                 style="color:#000000;text-indent:0;text-transform:none;fill:url(#radialGradient9921);stroke:#000000;stroke-opacity:1" />
              <path
                 id="path4183-8"
                 d="m 1367.9,262.27 -0.9688,0.125 c 0,0 0.1285,1.0525 0.375,2.3438 0.2466,1.2912 0.5918,2.7868 1.0938,3.8125 1.2543,2.563 3.1018,4.939 5.375,6.6875 2.9785,2.291 6.6219,3.4958 10.125,4.5312 2.956,0.8738 6.0726,1.4595 9.1875,1.4375 3.2724,-0.0231 9.3125,-1.5938 9.3125,-1.5938 l -0.25,-0.96875 c 0,0 -6.1159,1.5416 -9.0625,1.5625 -2.9825,0.0211 -5.9836,-0.55155 -8.875,-1.4062 -3.4831,-1.0296 -7.0479,-2.1932 -9.8437,-4.3438 -2.135,-1.6421 -3.9035,-3.9115 -5.0938,-6.3438 -0.405,-0.82746 -0.76,-2.3055 -1,-3.5625 -0.24,-1.257 -0.375,-2.2812 -0.375,-2.2812 z"
                 style="color:#000000;text-indent:0;text-transform:none;opacity:0.7;fill:#ffffff;stroke:#000000;stroke-opacity:1;filter:url(#filter4209)" />
            </g>
          </g>
          <g
             id="g4228"
             transform="matrix(-0.65038971,0.06149916,0.06149916,0.65038971,1856.1297,1217.0553)">
            <path
               id="path24-33"
               d="m 332.94526,233.77562 -7.29101,8.55274 c -0.30888,0.36224 -0.19362,1.19051 0.19921,1.25781 8.18213,1.40175 10.7466,4.30685 14.00196,7.07813 4.39519,4.44819 6.19735,9.82519 9.0664,11.8164 5.30537,3.68208 9.13177,-2.59197 5.72461,-8.13086 -2.32474,-3.77926 -5.1968,-6.54433 -8.94531,-9.87109 -3.74851,-3.32678 -8.91761,-6.98882 -12.75586,-10.70313 z m 2.52149,4.97461 a 1.008,1.008 0 0 1 1.00781,1.00782 1.008,1.008 0 0 1 -1.00781,1.00781 1.008,1.008 0 0 1 -1.00782,-1.00781 1.008,1.008 0 0 1 1.00782,-1.00782 z m 7.41992,6.46485 a 1.008,1.008 0 0 1 1.00781,1.00781 1.008,1.008 0 0 1 -1.00781,1.00976 1.008,1.008 0 0 1 -1.00782,-1.00976 1.008,1.008 0 0 1 1.00782,-1.00781 z m 6.51953,6.625 a 1.008,1.008 0 0 1 1.00781,1.00781 1.008,1.008 0 0 1 -1.00781,1.00781 1.008,1.008 0 0 1 -1.00781,-1.00781 1.008,1.008 0 0 1 1.00781,-1.00781 z"
               style="fill:#784421;fill-opacity:1;stroke:#000000;stroke-width:0.399976;stroke-miterlimit:4;stroke-dasharray:none;stroke-opacity:1" />
            <path
               id="path28-3"
               d="m 245.49609,158.375 c -12.0067,23.43833 3.21601,37.44844 13.01758,43.02148 24.95107,14.18684 41.50577,23.5356 67.54102,40.84961 l 4.16015,-4.88867 c -3.1e-4,-2.3e-4 3.1e-4,-0.002 0,-0.002 -22.50316,-17.01141 -47.71456,-32.40922 -67.73828,-51.2793 l 67.73828,51.2793 2.54688,-2.99219 C 307.06536,215.99879 246.25195,173.76224 245.49609,158.375 Z"
               style="fill:#87cdde;fill-opacity:1;stroke:#000000;stroke-width:0.399976;stroke-miterlimit:4;stroke-dasharray:none;stroke-opacity:1" />
            <path
               transform="matrix(0.79639988,-0.0753055,0.0753055,0.79639988,-799.83089,-1048.6894)"
               id="path26210"
               d="m 1242.7702,1722.5434 c -2.0309,-1.7735 -7.7519,-6.699 -14.4662,-12.4548 -18.0472,-15.4709 -24.0346,-20.7785 -32.9039,-29.1685 -2.5659,-2.4272 -10.2878,-10.1486 -12.4001,-12.3993 -2.6791,-2.8544 -5.7281,-6.2036 -5.6837,-6.2432 0.014,-0.013 14.7088,13.4463 32.654,29.9092 17.9453,16.463 32.8298,30.1156 33.0766,30.3391 0.6059,0.5485 0.35,0.5647 -0.2767,0.017 z"
               style="opacity:1;fill:#4d4d4d;fill-opacity:1;stroke:#000000;stroke-width:0.0345267;stroke-linecap:round;stroke-miterlimit:4;stroke-dasharray:none;stroke-opacity:1" />
          </g>
          <g
             id="g30603"
             transform="matrix(0.54076871,0,0,0.54076871,1146.081,1049.1692)">
            <path
               id="path30438"
               d="m 820.11,676.24 -22.429,-47.532 c -5.145,2.0154 -4.842,2.7671 -9.8831,4.7673 -6.8716,3.0162 -12.697,17.686 -7.2313,30.756 4.3042,11.036 19.015,19.243 23.925,17.618 5.0469,-2.0175 10.418,-3.7762 15.618,-5.61 z"
               style="color:#000000;fill:url(#linearGradient9923)" />
            <path
               id="path30426"
               d="m 809.09,626.87 c -1.2161,0.0426 -2.4144,0.20567 -3.625,0.4375 -0.24769,0.12102 -4.6232,1.8068 -4.8684,1.9372 -11.773,6.259 -12.058,19.432 -5.7253,31.344 5.1617,9.7092 15.873,14.525 26.031,12.594 0.25334,-0.12353 0.49918,-0.24166 0.75,-0.375 11.773,-6.259 16.208,-20.995 9.875,-32.906 -4.5516,-8.5615 -13.441,-13.346 -22.438,-13.031 z"
               style="color:#000000;fill:#d6c899" />
            <path
               id="path30372"
               style="color:#000000;fill:url(#linearGradient9925)"
               d="m 868.45,684.61 -58.544,0.30492 0.10159,15.822 v 0.13552 c -0.017,0.20025 -0.0338,0.40755 -0.0338,0.60984 0,0.17987 0.0205,0.36382 0.0338,0.54208 0.57716,7.6592 13.416,13.789 29.204,13.789 16.156,0 29.238,-6.4231 29.238,-14.331 0,-0.38881 -0.0395,-0.77092 -0.10158,-1.1519 l 0.10158,-15.72 z" />
            <ellipse
               ry="15.905631"
               rx="24.994564"
               cy="877.46722"
               cx="838.16998"
               id="path29549"
               style="color:#000000;fill:url(#radialGradient9927)"
               transform="matrix(1.0795,0,0,0.83036,-65.52,-38.94)" />
            <path
               id="path29561"
               style="color:#000000;fill:url(#linearGradient9929)"
               d="m 839.56,672.59 c -14.902,0 -28.205,6.8975 -28.205,14.192 0,0.67398 0.51519,5.0687 0.71417,5.7155 1.7782,-12.064 13.986,-15.907 27.491,-15.907 13.505,0 25.983,5.5508 26.757,14.501 0.1991,-0.64701 0.71418,-4.238 0.71418,-4.9122 0,-7.2942 -12.569,-13.589 -27.471,-13.589 z" />
            <path
               id="path29576"
               style="color:#000000;text-indent:0;text-transform:none;fill:url(#linearGradient9931)"
               d="m 839.17,670.98 c -8.0735,0 -15.38,1.8187 -20.752,4.7914 -5.3721,2.9727 -8.8375,7.176 -8.8375,11.916 0,4.7403 3.4654,8.9435 8.8375,11.916 5.3721,2.9727 12.678,4.7914 20.752,4.7914 8.0735,0 15.416,-1.8187 20.788,-4.7914 5.3721,-2.9727 8.8375,-7.176 8.8375,-11.916 0,-4.7403 -3.4654,-8.9435 -8.8375,-11.916 -5.3721,-2.9727 -12.714,-4.7914 -20.788,-4.7914 z m 0,1.7423 c 7.7314,0 14.729,1.7526 19.714,4.5114 4.9853,2.7587 7.9072,6.4484 7.9072,10.454 0,4.0056 -2.9219,7.6952 -7.9072,10.454 -4.9853,2.7587 -11.983,4.5114 -19.714,4.5114 -7.7314,0 -14.693,-1.7526 -19.679,-4.5114 -4.9853,-2.7587 -7.943,-6.4484 -7.943,-10.454 0,-4.0056 2.9577,-7.6952 7.943,-10.454 4.9853,-2.7587 11.947,-4.5114 19.679,-4.5114 z" />
            <path
               id="path30421"
               style="color:#000000;fill:url(#linearGradient9933);stroke:#917c6f"
               d="m 804.4,628.86 c -1.2161,0.0432 -2.4144,0.20879 -3.625,0.44415 -0.24769,0.12285 -0.50473,0.24831 -0.75,0.38069 -11.773,6.354 -16.176,21.313 -9.8438,33.406 5.1617,9.8566 15.873,14.746 26.031,12.785 0.25334,-0.12541 0.49918,-0.24533 0.75,-0.3807 11.773,-6.354 16.208,-21.313 9.875,-33.406 -4.5516,-8.6916 -13.441,-13.549 -22.438,-13.229 z" />
            <path
               id="path30428"
               style="color:#000000;text-indent:0;text-transform:none;fill:url(#linearGradient9935)"
               d="m 810.19,625.33 c -13.708,0 -24.792,11.694 -24.792,26.062 0,14.369 11.084,26.096 24.792,26.096 13.708,0 24.825,-11.727 24.825,-26.096 0,-14.369 -11.117,-26.062 -24.825,-26.062 z m 0,2.1467 c 12.535,0 22.721,10.672 22.721,23.916 0,13.244 -10.186,23.949 -22.721,23.949 -12.535,0 -22.688,-10.705 -22.688,-23.949 0,-13.244 10.153,-23.916 22.688,-23.916 z" />
            <path
               id="path30519"
               d="m 849.49,696.51 -10.122,-4.3154 -12.362,3.9524 10.235,-6.1784 -7.3938,-7.3469 9.6198,5.2192 11.7,-4.7363 -9.572,6.9623 z"
               style="color:#000000;fill:#c5a268" />
            <path
               id="path30474"
               style="color:#000000;fill:#483e37"
               d="m 1028.3,566.37 -5.9707,-17.067 -40.062,1.6713 38.196,-9.0522 1.4101,-18.933 5.9707,17.067 40.342,-1.4582 -38.475,8.8391 z"
               transform="matrix(0.40089,0.053714,-0.053714,0.40089,457.72,416.57)" />
            <path
               id="path30504"
               style="color:#000000;text-indent:0;text-transform:none;fill:#ac9d93"
               d="m 839.31,678.22 c -6.3354,0 -12.06,1.2588 -16.251,3.3101 -4.1909,2.0513 -6.8515,4.9275 -6.8515,8.1445 0,3.217 2.6606,6.0932 6.8515,8.1445 4.1909,2.0513 9.9157,3.3101 16.251,3.3101 6.3354,0 12.089,-1.2588 16.279,-3.3101 4.1909,-2.0513 6.8515,-4.9275 6.8515,-8.1445 0,-3.217 -2.6606,-6.0932 -6.8515,-8.1445 -4.1909,-2.0513 -9.944,-3.3101 -16.279,-3.3101 z m 0,0.74041 c 6.1709,0 11.765,1.2191 15.77,3.1794 4.0049,1.9603 6.3985,4.6303 6.3985,7.5348 0,2.9045 -2.3936,5.5745 -6.3985,7.5348 -4.0049,1.9603 -9.5989,3.1794 -15.77,3.1794 -6.1709,0 -11.737,-1.2191 -15.741,-3.1794 -4.0049,-1.9603 -6.3985,-4.6303 -6.3985,-7.5348 0,-2.9045 2.3936,-5.5745 6.3985,-7.5348 4.0049,-1.9603 9.5706,-3.1794 15.741,-3.1794 z" />
            <path
               id="path30508"
               style="color:#000000;text-indent:0;text-transform:none;fill:#ac9d93"
               d="m 839.31,680.62 c -5.0081,0 -9.5335,0.99504 -12.846,2.6166 -3.3129,1.6216 -5.4161,3.8952 -5.4161,6.4382 0,2.543 2.1032,4.8166 5.4161,6.4382 3.3129,1.6216 7.8383,2.6166 12.846,2.6166 5.0081,0 9.5559,-0.99504 12.869,-2.6166 3.3129,-1.6216 5.4161,-3.8952 5.4161,-6.4382 0,-2.543 -2.1032,-4.8166 -5.4161,-6.4382 -3.3129,-1.6216 -7.8607,-2.6166 -12.869,-2.6166 z m 0,0.58529 c 4.878,0 9.3001,0.96372 12.466,2.5133 3.1658,1.5496 5.058,3.6602 5.058,5.9562 0,2.296 -1.8922,4.4066 -5.058,5.9562 -3.1658,1.5496 -7.5879,2.5133 -12.466,2.5133 -4.878,0 -9.2777,-0.96372 -12.444,-2.5133 -3.1658,-1.5496 -5.058,-3.6602 -5.058,-5.9562 0,-2.296 1.8922,-4.4066 5.058,-5.9562 3.1658,-1.5496 7.5655,-2.5133 12.444,-2.5133 z" />
            <path
               id="path30572"
               style="color:#000000;opacity:0.5;fill:#000000;filter:url(#filter30599)"
               d="m 824.65,677.7 -1.3438,0.28125 h -0.0937 l 11.719,8.5312 c -1.2335,0.57311 -2.0312,1.4174 -2.0312,2.375 0,1.3126 1.4752,2.4122 3.5625,2.875 0.31364,0.0695 0.63043,0.14943 0.96875,0.1875 0.39919,0.0489 0.82428,0.0625 1.25,0.0625 0.59643,-0.006 1.1564,-0.0848 1.6875,-0.1875 0.57025,-0.10407 1.1126,-0.21533 1.5938,-0.40625 l 6.0938,4.1562 c -0.79886,0.45063 -1.4062,1.1289 -1.4062,1.9688 0,0.85351 0.61914,1.5499 1.4375,2 0.43224,0.23773 0.94149,0.38458 1.5,0.5 0.23456,0.0485 0.46907,0.099 0.71875,0.125 0.311,0.0362 0.64064,0.0625 0.96875,0.0625 0.26086,-0.003 0.50231,-0.0364 0.75,-0.0625 0.28811,-0.0258 0.54539,-0.0691 0.8125,-0.125 0.5516,-0.1154 1.0669,-0.26178 1.5,-0.5 0.81836,-0.4501 1.4375,-1.1465 1.4375,-2 0,-0.8535 -0.61914,-1.5499 -1.4375,-2 -0.43279,-0.23803 -0.94889,-0.40761 -1.5,-0.53125 -0.26763,-0.06 -0.52377,-0.1277 -0.8125,-0.15625 -0.27846,-0.0322 -0.54888,-0.0312 -0.84375,-0.0312 -0.35333,0 -0.69774,0.0464 -1.0312,0.0937 l -6.8438,-4.25 c 0.64474,-0.50678 1.0312,-1.1158 1.0312,-1.7812 0,-1.5331 -1.9811,-2.797 -4.625,-3.0625 -0.36913,-0.0416 -0.73284,-0.0625 -1.125,-0.0625 -0.54332,0 -1.0649,0.0477 -1.5625,0.125 L 824.7444,677.7 h -0.0625 -0.0312 z m 26.531,18.125 c 0.25772,0 0.51067,0.003 0.75,0.0312 0.0302,0.003 0.0639,-0.004 0.0937,0 0.20534,0.0278 0.40583,0.0794 0.59375,0.125 0.433,0.10511 0.80992,0.26421 1.125,0.4375 0.63016,0.34659 0.9375,0.7628 0.9375,1.125 0,0.3622 -0.30734,0.77841 -0.9375,1.125 -0.31508,0.1733 -0.692,0.30895 -1.125,0.40625 -0.40598,0.0912 -0.86432,0.14997 -1.3438,0.15625 -0.29174,0 -0.57237,0.001 -0.84375,-0.0312 -0.68756,-0.0827 -1.2982,-0.28274 -1.75,-0.53125 -0.63016,-0.34659 -0.9375,-0.76281 -0.9375,-1.125 0,-0.36219 0.30734,-0.77841 0.9375,-1.125 0.45182,-0.24851 1.0624,-0.47068 1.75,-0.5625 0.24225,-0.0286 0.49228,-0.0312 0.75,-0.0312 z" />
            <g
               id="g30562"
               transform="translate(32.095,-46.865)">
              <path
                 id="path30521"
                 d="m 792.93,723.7 -1.4375,0.28125 11.719,8.5312 c -1.2335,0.57311 -2.0312,1.4174 -2.0312,2.375 0,1.7255 2.5502,3.125 5.6875,3.125 1.2643,0 2.4,-0.24085 3.3438,-0.625 l 6.125,4.1875 c -0.79886,0.45063 -1.4062,1.1289 -1.4062,1.9688 0,0.85351 0.61914,1.5499 1.4375,2 0.81836,0.4501 1.9142,0.6875 3.0938,0.6875 1.1795,0 2.2441,-0.2374 3.0625,-0.6875 0.81836,-0.4501 1.4375,-1.1465 1.4375,-2 0,-0.8535 -0.61914,-1.5499 -1.4375,-2 -0.81836,-0.4501 -1.883,-0.71875 -3.0625,-0.71875 -0.38521,0 -0.76438,0.0395 -1.125,0.0937 l -6.8438,-4.25 c 0.64474,-0.50678 1.0312,-1.1158 1.0312,-1.7812 0,-1.7255 -2.519,-3.125 -5.6562,-3.125 -0.57612,0 -1.1323,0.0373 -1.6562,0.125 L 792.9307,723.7 Z m 26.531,18.125 c 1.0309,0 1.9323,0.24716 2.5625,0.59375 0.63016,0.34659 0.9375,0.7628 0.9375,1.125 0,0.3622 -0.30734,0.77841 -0.9375,1.125 -0.63016,0.34659 -1.5316,0.5625 -2.5625,0.5625 -1.0309,0 -1.9636,-0.21591 -2.5938,-0.5625 -0.63016,-0.34659 -0.9375,-0.76281 -0.9375,-1.125 0,-0.36219 0.30734,-0.77841 0.9375,-1.125 0.63016,-0.34659 1.5629,-0.59375 2.5938,-0.59375 z"
                 style="color:#000000;fill:url(#linearGradient9937)" />
              <path
                 id="path30552"
                 style="color:#000000;opacity:0.7;fill:url(#radialGradient9939)"
                 d="m 792.83,723.7 -1.4375,0.28125 11.719,8.5312 c -1.2335,0.57311 -2.0312,1.4174 -2.0312,2.375 0,1.7255 2.5502,3.125 5.6875,3.125 1.2643,0 2.4,-0.24085 3.3438,-0.625 l 6.125,4.1875 c -0.79886,0.45063 -1.4062,1.1289 -1.4062,1.9688 0,0.85351 0.61914,1.5499 1.4375,2 0.81836,0.4501 1.9142,0.6875 3.0938,0.6875 1.1795,0 2.2441,-0.2374 3.0625,-0.6875 0.81836,-0.4501 1.4375,-1.1465 1.4375,-2 0,-0.8535 -0.61914,-1.5499 -1.4375,-2 -0.81836,-0.4501 -1.883,-0.71875 -3.0625,-0.71875 -0.38521,0 -0.76438,0.0395 -1.125,0.0937 l -6.8438,-4.25 c 0.64474,-0.50678 1.0312,-1.1158 1.0312,-1.7812 0,-1.7255 -2.519,-3.125 -5.6562,-3.125 -0.57612,0 -1.1323,0.0373 -1.6562,0.125 L 792.8307,723.7 Z m 26.531,18.125 c 1.0309,0 1.9323,0.24716 2.5625,0.59375 0.63016,0.34659 0.9375,0.7628 0.9375,1.125 0,0.3622 -0.30734,0.77841 -0.9375,1.125 -0.63016,0.34659 -1.5316,0.5625 -2.5625,0.5625 -1.0309,0 -1.9636,-0.21591 -2.5938,-0.5625 -0.63016,-0.34659 -0.9375,-0.76281 -0.9375,-1.125 0,-0.36219 0.30734,-0.77841 0.9375,-1.125 0.63016,-0.34659 1.5629,-0.59375 2.5938,-0.59375 z" />
            </g>
          </g>
        </g>
      </g>
    </g>
  </g>
</svg>
